<mxfile host="app.diagrams.net" modified="2024-03-24T13:36:46.200Z" agent="Mozilla/5.0 (Windows NT 10.0; Win64; x64) AppleWebKit/537.36 (KHTML, like Gecko) Chrome/122.0.0.0 Safari/537.36" etag="gNAKHqM5QGMmbSTKsVmn" version="24.1.0" type="device">
  <diagram id="C5RBs43oDa-KdzZeNtuy" name="Page-1">
    <mxGraphModel dx="1562" dy="818" grid="1" gridSize="10" guides="1" tooltips="1" connect="1" arrows="1" fold="1" page="1" pageScale="1" pageWidth="827" pageHeight="1169" math="0" shadow="0">
      <root>
        <mxCell id="WIyWlLk6GJQsqaUBKTNV-0" />
        <mxCell id="WIyWlLk6GJQsqaUBKTNV-1" parent="WIyWlLk6GJQsqaUBKTNV-0" />
        <mxCell id="zEI3tzeWcLlLGlrf6bEd-0" value="Converters.py" style="rounded=0;whiteSpace=wrap;html=1;" vertex="1" parent="WIyWlLk6GJQsqaUBKTNV-1">
          <mxGeometry x="590" y="390" width="120" height="60" as="geometry" />
        </mxCell>
        <mxCell id="zEI3tzeWcLlLGlrf6bEd-1" value="my_logging.py" style="rounded=0;whiteSpace=wrap;html=1;" vertex="1" parent="WIyWlLk6GJQsqaUBKTNV-1">
          <mxGeometry x="434" y="520" width="120" height="60" as="geometry" />
        </mxCell>
        <mxCell id="zEI3tzeWcLlLGlrf6bEd-2" value="GameEnums.py" style="rounded=0;whiteSpace=wrap;html=1;" vertex="1" parent="WIyWlLk6GJQsqaUBKTNV-1">
          <mxGeometry x="420" y="790" width="120" height="60" as="geometry" />
        </mxCell>
        <mxCell id="zEI3tzeWcLlLGlrf6bEd-3" value="DataTypes.py" style="rounded=0;whiteSpace=wrap;html=1;" vertex="1" parent="WIyWlLk6GJQsqaUBKTNV-1">
          <mxGeometry x="160" y="800" width="120" height="60" as="geometry" />
        </mxCell>
        <mxCell id="zEI3tzeWcLlLGlrf6bEd-4" value="configs.py" style="rounded=0;whiteSpace=wrap;html=1;" vertex="1" parent="WIyWlLk6GJQsqaUBKTNV-1">
          <mxGeometry x="560" y="600" width="120" height="60" as="geometry" />
        </mxCell>
        <mxCell id="zEI3tzeWcLlLGlrf6bEd-5" value="" style="endArrow=classic;html=1;rounded=0;entryX=0.5;entryY=0;entryDx=0;entryDy=0;exitX=0.25;exitY=1;exitDx=0;exitDy=0;" edge="1" parent="WIyWlLk6GJQsqaUBKTNV-1" source="zEI3tzeWcLlLGlrf6bEd-4" target="zEI3tzeWcLlLGlrf6bEd-3">
          <mxGeometry width="50" height="50" relative="1" as="geometry">
            <mxPoint x="200" y="750" as="sourcePoint" />
            <mxPoint x="250" y="700" as="targetPoint" />
          </mxGeometry>
        </mxCell>
        <mxCell id="zEI3tzeWcLlLGlrf6bEd-6" value="" style="endArrow=classic;html=1;rounded=0;exitX=0.5;exitY=1;exitDx=0;exitDy=0;" edge="1" parent="WIyWlLk6GJQsqaUBKTNV-1" source="zEI3tzeWcLlLGlrf6bEd-4" target="zEI3tzeWcLlLGlrf6bEd-2">
          <mxGeometry width="50" height="50" relative="1" as="geometry">
            <mxPoint x="300" y="700" as="sourcePoint" />
            <mxPoint x="250" y="780" as="targetPoint" />
          </mxGeometry>
        </mxCell>
        <mxCell id="zEI3tzeWcLlLGlrf6bEd-7" value="" style="endArrow=classic;html=1;rounded=0;entryX=0.5;entryY=0;entryDx=0;entryDy=0;" edge="1" parent="WIyWlLk6GJQsqaUBKTNV-1" source="zEI3tzeWcLlLGlrf6bEd-1" target="zEI3tzeWcLlLGlrf6bEd-4">
          <mxGeometry width="50" height="50" relative="1" as="geometry">
            <mxPoint x="350" y="580" as="sourcePoint" />
            <mxPoint x="423" y="660" as="targetPoint" />
          </mxGeometry>
        </mxCell>
        <mxCell id="zEI3tzeWcLlLGlrf6bEd-8" value="GameBoard.py" style="rounded=0;whiteSpace=wrap;html=1;" vertex="1" parent="WIyWlLk6GJQsqaUBKTNV-1">
          <mxGeometry x="250" y="530" width="120" height="60" as="geometry" />
        </mxCell>
        <mxCell id="zEI3tzeWcLlLGlrf6bEd-9" value="LevelIO.py" style="rounded=0;whiteSpace=wrap;html=1;" vertex="1" parent="WIyWlLk6GJQsqaUBKTNV-1">
          <mxGeometry x="60" y="600" width="120" height="60" as="geometry" />
        </mxCell>
        <mxCell id="zEI3tzeWcLlLGlrf6bEd-10" value="Game.py" style="rounded=0;whiteSpace=wrap;html=1;" vertex="1" parent="WIyWlLk6GJQsqaUBKTNV-1">
          <mxGeometry x="620" y="220" width="120" height="60" as="geometry" />
        </mxCell>
        <mxCell id="zEI3tzeWcLlLGlrf6bEd-11" value="Sprites.py" style="rounded=0;whiteSpace=wrap;html=1;" vertex="1" parent="WIyWlLk6GJQsqaUBKTNV-1">
          <mxGeometry x="300" y="930" width="120" height="60" as="geometry" />
        </mxCell>
        <mxCell id="zEI3tzeWcLlLGlrf6bEd-12" value="" style="endArrow=classic;html=1;rounded=0;entryX=0.19;entryY=-0.06;entryDx=0;entryDy=0;exitX=0.75;exitY=1;exitDx=0;exitDy=0;entryPerimeter=0;" edge="1" parent="WIyWlLk6GJQsqaUBKTNV-1" source="zEI3tzeWcLlLGlrf6bEd-9" target="zEI3tzeWcLlLGlrf6bEd-3">
          <mxGeometry width="50" height="50" relative="1" as="geometry">
            <mxPoint x="125" y="680" as="sourcePoint" />
            <mxPoint x="75" y="760" as="targetPoint" />
          </mxGeometry>
        </mxCell>
        <mxCell id="zEI3tzeWcLlLGlrf6bEd-13" value="" style="endArrow=classic;html=1;rounded=0;" edge="1" parent="WIyWlLk6GJQsqaUBKTNV-1" source="zEI3tzeWcLlLGlrf6bEd-9" target="zEI3tzeWcLlLGlrf6bEd-2">
          <mxGeometry width="50" height="50" relative="1" as="geometry">
            <mxPoint x="180" y="630" as="sourcePoint" />
            <mxPoint x="243" y="746" as="targetPoint" />
          </mxGeometry>
        </mxCell>
        <mxCell id="zEI3tzeWcLlLGlrf6bEd-14" value="" style="endArrow=classic;html=1;rounded=0;exitX=0.607;exitY=1.007;exitDx=0;exitDy=0;exitPerimeter=0;entryX=0.25;entryY=0;entryDx=0;entryDy=0;" edge="1" parent="WIyWlLk6GJQsqaUBKTNV-1" source="zEI3tzeWcLlLGlrf6bEd-8" target="zEI3tzeWcLlLGlrf6bEd-2">
          <mxGeometry width="50" height="50" relative="1" as="geometry">
            <mxPoint x="274" y="630" as="sourcePoint" />
            <mxPoint x="480" y="750" as="targetPoint" />
          </mxGeometry>
        </mxCell>
        <mxCell id="zEI3tzeWcLlLGlrf6bEd-15" value="" style="endArrow=classic;html=1;rounded=0;exitX=0.167;exitY=1.033;exitDx=0;exitDy=0;entryX=0.5;entryY=0;entryDx=0;entryDy=0;exitPerimeter=0;" edge="1" parent="WIyWlLk6GJQsqaUBKTNV-1" source="zEI3tzeWcLlLGlrf6bEd-8" target="zEI3tzeWcLlLGlrf6bEd-3">
          <mxGeometry width="50" height="50" relative="1" as="geometry">
            <mxPoint x="230" y="590" as="sourcePoint" />
            <mxPoint x="350" y="780" as="targetPoint" />
          </mxGeometry>
        </mxCell>
        <mxCell id="zEI3tzeWcLlLGlrf6bEd-17" value="" style="endArrow=classic;html=1;rounded=0;exitX=1;exitY=0.25;exitDx=0;exitDy=0;entryX=0;entryY=0.25;entryDx=0;entryDy=0;" edge="1" parent="WIyWlLk6GJQsqaUBKTNV-1" source="zEI3tzeWcLlLGlrf6bEd-8" target="zEI3tzeWcLlLGlrf6bEd-1">
          <mxGeometry width="50" height="50" relative="1" as="geometry">
            <mxPoint x="386.5" y="590" as="sourcePoint" />
            <mxPoint x="453.5" y="770" as="targetPoint" />
          </mxGeometry>
        </mxCell>
        <mxCell id="zEI3tzeWcLlLGlrf6bEd-18" value="" style="endArrow=classic;html=1;rounded=0;exitX=1;exitY=0.25;exitDx=0;exitDy=0;entryX=0;entryY=0.75;entryDx=0;entryDy=0;" edge="1" parent="WIyWlLk6GJQsqaUBKTNV-1" source="zEI3tzeWcLlLGlrf6bEd-9" target="zEI3tzeWcLlLGlrf6bEd-1">
          <mxGeometry width="50" height="50" relative="1" as="geometry">
            <mxPoint x="170.00000000000006" y="590" as="sourcePoint" />
            <mxPoint x="379.56" y="756.42" as="targetPoint" />
            <Array as="points">
              <mxPoint x="310" y="620" />
            </Array>
          </mxGeometry>
        </mxCell>
        <mxCell id="zEI3tzeWcLlLGlrf6bEd-19" value="" style="endArrow=classic;html=1;rounded=0;entryX=0;entryY=0.5;entryDx=0;entryDy=0;exitX=0.75;exitY=0;exitDx=0;exitDy=0;" edge="1" parent="WIyWlLk6GJQsqaUBKTNV-1" source="zEI3tzeWcLlLGlrf6bEd-9" target="zEI3tzeWcLlLGlrf6bEd-8">
          <mxGeometry width="50" height="50" relative="1" as="geometry">
            <mxPoint x="110" y="580" as="sourcePoint" />
            <mxPoint x="160" y="530" as="targetPoint" />
            <Array as="points">
              <mxPoint x="160" y="560" />
            </Array>
          </mxGeometry>
        </mxCell>
        <mxCell id="zEI3tzeWcLlLGlrf6bEd-20" value="GameboardSpriteManager.py" style="rounded=0;whiteSpace=wrap;html=1;" vertex="1" parent="WIyWlLk6GJQsqaUBKTNV-1">
          <mxGeometry x="390" y="300" width="180" height="60" as="geometry" />
        </mxCell>
        <mxCell id="zEI3tzeWcLlLGlrf6bEd-21" value="LevelBackground.py" style="rounded=0;whiteSpace=wrap;html=1;" vertex="1" parent="WIyWlLk6GJQsqaUBKTNV-1">
          <mxGeometry x="560" y="50" width="180" height="60" as="geometry" />
        </mxCell>
        <mxCell id="zEI3tzeWcLlLGlrf6bEd-22" value="LevelCompleteScreen.py" style="rounded=0;whiteSpace=wrap;html=1;" vertex="1" parent="WIyWlLk6GJQsqaUBKTNV-1">
          <mxGeometry x="30" y="130" width="180" height="60" as="geometry" />
        </mxCell>
        <mxCell id="zEI3tzeWcLlLGlrf6bEd-23" value="LevelEditor.py" style="rounded=0;whiteSpace=wrap;html=1;" vertex="1" parent="WIyWlLk6GJQsqaUBKTNV-1">
          <mxGeometry x="10" y="430" width="180" height="60" as="geometry" />
        </mxCell>
        <mxCell id="zEI3tzeWcLlLGlrf6bEd-24" value="ShortestPath.py" style="rounded=0;whiteSpace=wrap;html=1;" vertex="1" parent="WIyWlLk6GJQsqaUBKTNV-1">
          <mxGeometry x="270" y="390" width="150" height="60" as="geometry" />
        </mxCell>
        <mxCell id="zEI3tzeWcLlLGlrf6bEd-25" value="SplashScreen.py" style="rounded=0;whiteSpace=wrap;html=1;" vertex="1" parent="WIyWlLk6GJQsqaUBKTNV-1">
          <mxGeometry x="620" y="980" width="180" height="60" as="geometry" />
        </mxCell>
        <mxCell id="zEI3tzeWcLlLGlrf6bEd-26" value="TitleScreen.py" style="rounded=0;whiteSpace=wrap;html=1;" vertex="1" parent="WIyWlLk6GJQsqaUBKTNV-1">
          <mxGeometry x="30" y="280" width="180" height="60" as="geometry" />
        </mxCell>
        <mxCell id="zEI3tzeWcLlLGlrf6bEd-27" value="Window.py" style="rounded=0;whiteSpace=wrap;html=1;" vertex="1" parent="WIyWlLk6GJQsqaUBKTNV-1">
          <mxGeometry x="260" y="170" width="180" height="60" as="geometry" />
        </mxCell>
        <mxCell id="zEI3tzeWcLlLGlrf6bEd-28" value="SlideQuest.py" style="rounded=0;whiteSpace=wrap;html=1;" vertex="1" parent="WIyWlLk6GJQsqaUBKTNV-1">
          <mxGeometry x="260" y="20" width="180" height="60" as="geometry" />
        </mxCell>
        <mxCell id="zEI3tzeWcLlLGlrf6bEd-29" value="" style="endArrow=classic;html=1;rounded=0;exitX=0.5;exitY=1;exitDx=0;exitDy=0;entryX=0.5;entryY=0;entryDx=0;entryDy=0;" edge="1" parent="WIyWlLk6GJQsqaUBKTNV-1" source="zEI3tzeWcLlLGlrf6bEd-28" target="zEI3tzeWcLlLGlrf6bEd-27">
          <mxGeometry width="50" height="50" relative="1" as="geometry">
            <mxPoint x="540" y="250" as="sourcePoint" />
            <mxPoint x="590" y="200" as="targetPoint" />
          </mxGeometry>
        </mxCell>
        <mxCell id="zEI3tzeWcLlLGlrf6bEd-30" value="" style="endArrow=classic;html=1;rounded=0;exitX=0;exitY=1;exitDx=0;exitDy=0;entryX=0.25;entryY=0;entryDx=0;entryDy=0;" edge="1" parent="WIyWlLk6GJQsqaUBKTNV-1" source="zEI3tzeWcLlLGlrf6bEd-24" target="zEI3tzeWcLlLGlrf6bEd-8">
          <mxGeometry width="50" height="50" relative="1" as="geometry">
            <mxPoint x="560" y="580" as="sourcePoint" />
            <mxPoint x="610" y="530" as="targetPoint" />
          </mxGeometry>
        </mxCell>
        <mxCell id="zEI3tzeWcLlLGlrf6bEd-31" value="" style="endArrow=classic;html=1;rounded=0;exitX=0.75;exitY=1;exitDx=0;exitDy=0;entryX=0.25;entryY=0;entryDx=0;entryDy=0;" edge="1" parent="WIyWlLk6GJQsqaUBKTNV-1" source="zEI3tzeWcLlLGlrf6bEd-24" target="zEI3tzeWcLlLGlrf6bEd-2">
          <mxGeometry width="50" height="50" relative="1" as="geometry">
            <mxPoint x="560" y="580" as="sourcePoint" />
            <mxPoint x="610" y="530" as="targetPoint" />
          </mxGeometry>
        </mxCell>
        <mxCell id="zEI3tzeWcLlLGlrf6bEd-32" value="" style="endArrow=classic;html=1;rounded=0;exitX=0.943;exitY=-0.027;exitDx=0;exitDy=0;exitPerimeter=0;entryX=0;entryY=1;entryDx=0;entryDy=0;" edge="1" parent="WIyWlLk6GJQsqaUBKTNV-1" source="zEI3tzeWcLlLGlrf6bEd-11" target="zEI3tzeWcLlLGlrf6bEd-2">
          <mxGeometry width="50" height="50" relative="1" as="geometry">
            <mxPoint x="320" y="900" as="sourcePoint" />
            <mxPoint x="370" y="850" as="targetPoint" />
          </mxGeometry>
        </mxCell>
        <mxCell id="zEI3tzeWcLlLGlrf6bEd-33" value="" style="endArrow=classic;html=1;rounded=0;exitX=1;exitY=0.25;exitDx=0;exitDy=0;entryX=0.823;entryY=1.007;entryDx=0;entryDy=0;entryPerimeter=0;" edge="1" parent="WIyWlLk6GJQsqaUBKTNV-1" source="zEI3tzeWcLlLGlrf6bEd-11" target="zEI3tzeWcLlLGlrf6bEd-4">
          <mxGeometry width="50" height="50" relative="1" as="geometry">
            <mxPoint x="480" y="968" as="sourcePoint" />
            <mxPoint x="487" y="890" as="targetPoint" />
            <Array as="points">
              <mxPoint x="770" y="780" />
            </Array>
          </mxGeometry>
        </mxCell>
        <mxCell id="zEI3tzeWcLlLGlrf6bEd-34" value="" style="endArrow=classic;html=1;rounded=0;entryX=0.75;entryY=1;entryDx=0;entryDy=0;exitX=0.25;exitY=0;exitDx=0;exitDy=0;" edge="1" parent="WIyWlLk6GJQsqaUBKTNV-1" source="zEI3tzeWcLlLGlrf6bEd-11" target="zEI3tzeWcLlLGlrf6bEd-3">
          <mxGeometry width="50" height="50" relative="1" as="geometry">
            <mxPoint x="160" y="930" as="sourcePoint" />
            <mxPoint x="210" y="880" as="targetPoint" />
          </mxGeometry>
        </mxCell>
        <mxCell id="zEI3tzeWcLlLGlrf6bEd-35" value="" style="endArrow=classic;html=1;rounded=0;entryX=0;entryY=1;entryDx=0;entryDy=0;exitX=0.57;exitY=-0.04;exitDx=0;exitDy=0;exitPerimeter=0;" edge="1" parent="WIyWlLk6GJQsqaUBKTNV-1" source="zEI3tzeWcLlLGlrf6bEd-11" target="zEI3tzeWcLlLGlrf6bEd-1">
          <mxGeometry width="50" height="50" relative="1" as="geometry">
            <mxPoint x="540" y="850" as="sourcePoint" />
            <mxPoint x="590" y="800" as="targetPoint" />
          </mxGeometry>
        </mxCell>
        <mxCell id="zEI3tzeWcLlLGlrf6bEd-36" value="" style="endArrow=classic;html=1;rounded=0;entryX=0.75;entryY=1;entryDx=0;entryDy=0;exitX=1;exitY=0.75;exitDx=0;exitDy=0;" edge="1" parent="WIyWlLk6GJQsqaUBKTNV-1" source="zEI3tzeWcLlLGlrf6bEd-11" target="zEI3tzeWcLlLGlrf6bEd-0">
          <mxGeometry width="50" height="50" relative="1" as="geometry">
            <mxPoint x="540" y="850" as="sourcePoint" />
            <mxPoint x="590" y="800" as="targetPoint" />
            <Array as="points">
              <mxPoint x="810" y="820" />
            </Array>
          </mxGeometry>
        </mxCell>
        <mxCell id="zEI3tzeWcLlLGlrf6bEd-37" value="" style="endArrow=classic;html=1;rounded=0;entryX=0;entryY=0.5;entryDx=0;entryDy=0;exitX=0.049;exitY=1.013;exitDx=0;exitDy=0;exitPerimeter=0;" edge="1" parent="WIyWlLk6GJQsqaUBKTNV-1" source="zEI3tzeWcLlLGlrf6bEd-23" target="zEI3tzeWcLlLGlrf6bEd-4">
          <mxGeometry width="50" height="50" relative="1" as="geometry">
            <mxPoint x="540" y="750" as="sourcePoint" />
            <mxPoint x="590" y="700" as="targetPoint" />
            <Array as="points">
              <mxPoint x="220" y="600" />
            </Array>
          </mxGeometry>
        </mxCell>
        <mxCell id="zEI3tzeWcLlLGlrf6bEd-38" value="" style="endArrow=classic;html=1;rounded=0;exitX=0.667;exitY=1.013;exitDx=0;exitDy=0;exitPerimeter=0;entryX=0;entryY=0.5;entryDx=0;entryDy=0;" edge="1" parent="WIyWlLk6GJQsqaUBKTNV-1" source="zEI3tzeWcLlLGlrf6bEd-23" target="zEI3tzeWcLlLGlrf6bEd-2">
          <mxGeometry width="50" height="50" relative="1" as="geometry">
            <mxPoint x="100" y="830" as="sourcePoint" />
            <mxPoint x="100" y="710" as="targetPoint" />
          </mxGeometry>
        </mxCell>
        <mxCell id="zEI3tzeWcLlLGlrf6bEd-39" value="" style="endArrow=classic;html=1;rounded=0;exitX=0.444;exitY=1;exitDx=0;exitDy=0;exitPerimeter=0;entryX=0.5;entryY=0;entryDx=0;entryDy=0;" edge="1" parent="WIyWlLk6GJQsqaUBKTNV-1" source="zEI3tzeWcLlLGlrf6bEd-23" target="zEI3tzeWcLlLGlrf6bEd-11">
          <mxGeometry width="50" height="50" relative="1" as="geometry">
            <mxPoint x="540" y="750" as="sourcePoint" />
            <mxPoint x="590" y="700" as="targetPoint" />
            <Array as="points">
              <mxPoint x="240" y="660" />
            </Array>
          </mxGeometry>
        </mxCell>
        <mxCell id="zEI3tzeWcLlLGlrf6bEd-40" value="" style="endArrow=classic;html=1;rounded=0;entryX=0.25;entryY=0;entryDx=0;entryDy=0;exitX=0.916;exitY=0.987;exitDx=0;exitDy=0;exitPerimeter=0;" edge="1" parent="WIyWlLk6GJQsqaUBKTNV-1" source="zEI3tzeWcLlLGlrf6bEd-23" target="zEI3tzeWcLlLGlrf6bEd-3">
          <mxGeometry width="50" height="50" relative="1" as="geometry">
            <mxPoint x="540" y="750" as="sourcePoint" />
            <mxPoint x="590" y="700" as="targetPoint" />
          </mxGeometry>
        </mxCell>
        <mxCell id="zEI3tzeWcLlLGlrf6bEd-41" value="" style="endArrow=classic;html=1;rounded=0;exitX=1;exitY=0.5;exitDx=0;exitDy=0;" edge="1" parent="WIyWlLk6GJQsqaUBKTNV-1" source="zEI3tzeWcLlLGlrf6bEd-23" target="zEI3tzeWcLlLGlrf6bEd-8">
          <mxGeometry width="50" height="50" relative="1" as="geometry">
            <mxPoint x="540" y="750" as="sourcePoint" />
            <mxPoint x="590" y="700" as="targetPoint" />
          </mxGeometry>
        </mxCell>
        <mxCell id="zEI3tzeWcLlLGlrf6bEd-42" value="" style="endArrow=classic;html=1;rounded=0;exitX=0.32;exitY=1;exitDx=0;exitDy=0;exitPerimeter=0;entryX=0.25;entryY=0;entryDx=0;entryDy=0;" edge="1" parent="WIyWlLk6GJQsqaUBKTNV-1" source="zEI3tzeWcLlLGlrf6bEd-23" target="zEI3tzeWcLlLGlrf6bEd-9">
          <mxGeometry width="50" height="50" relative="1" as="geometry">
            <mxPoint x="540" y="750" as="sourcePoint" />
            <mxPoint x="590" y="700" as="targetPoint" />
          </mxGeometry>
        </mxCell>
        <mxCell id="zEI3tzeWcLlLGlrf6bEd-43" value="" style="endArrow=classic;html=1;rounded=0;exitX=1;exitY=0.25;exitDx=0;exitDy=0;entryX=0.25;entryY=0;entryDx=0;entryDy=0;" edge="1" parent="WIyWlLk6GJQsqaUBKTNV-1" source="zEI3tzeWcLlLGlrf6bEd-23" target="zEI3tzeWcLlLGlrf6bEd-1">
          <mxGeometry width="50" height="50" relative="1" as="geometry">
            <mxPoint x="540" y="750" as="sourcePoint" />
            <mxPoint x="590" y="700" as="targetPoint" />
          </mxGeometry>
        </mxCell>
        <mxCell id="zEI3tzeWcLlLGlrf6bEd-44" value="" style="endArrow=classic;html=1;rounded=0;exitX=1;exitY=0.75;exitDx=0;exitDy=0;entryX=0;entryY=0.75;entryDx=0;entryDy=0;" edge="1" parent="WIyWlLk6GJQsqaUBKTNV-1" source="zEI3tzeWcLlLGlrf6bEd-23" target="zEI3tzeWcLlLGlrf6bEd-0">
          <mxGeometry width="50" height="50" relative="1" as="geometry">
            <mxPoint x="540" y="750" as="sourcePoint" />
            <mxPoint x="590" y="700" as="targetPoint" />
          </mxGeometry>
        </mxCell>
        <mxCell id="zEI3tzeWcLlLGlrf6bEd-45" value="" style="endArrow=classic;html=1;rounded=0;exitX=0.613;exitY=-0.053;exitDx=0;exitDy=0;exitPerimeter=0;entryX=0;entryY=0.25;entryDx=0;entryDy=0;" edge="1" parent="WIyWlLk6GJQsqaUBKTNV-1" source="zEI3tzeWcLlLGlrf6bEd-23" target="zEI3tzeWcLlLGlrf6bEd-20">
          <mxGeometry width="50" height="50" relative="1" as="geometry">
            <mxPoint x="540" y="450" as="sourcePoint" />
            <mxPoint x="590" y="400" as="targetPoint" />
          </mxGeometry>
        </mxCell>
        <mxCell id="zEI3tzeWcLlLGlrf6bEd-46" value="" style="endArrow=classic;html=1;rounded=0;exitX=0.107;exitY=1.027;exitDx=0;exitDy=0;exitPerimeter=0;entryX=0.877;entryY=-0.073;entryDx=0;entryDy=0;entryPerimeter=0;" edge="1" parent="WIyWlLk6GJQsqaUBKTNV-1" source="zEI3tzeWcLlLGlrf6bEd-0" target="zEI3tzeWcLlLGlrf6bEd-3">
          <mxGeometry width="50" height="50" relative="1" as="geometry">
            <mxPoint x="750" y="445" as="sourcePoint" />
            <mxPoint x="800" y="395" as="targetPoint" />
          </mxGeometry>
        </mxCell>
        <mxCell id="zEI3tzeWcLlLGlrf6bEd-47" value="" style="endArrow=classic;html=1;rounded=0;exitX=0.25;exitY=1;exitDx=0;exitDy=0;" edge="1" parent="WIyWlLk6GJQsqaUBKTNV-1" source="zEI3tzeWcLlLGlrf6bEd-0" target="zEI3tzeWcLlLGlrf6bEd-2">
          <mxGeometry width="50" height="50" relative="1" as="geometry">
            <mxPoint x="600" y="550" as="sourcePoint" />
            <mxPoint x="650" y="500" as="targetPoint" />
          </mxGeometry>
        </mxCell>
        <mxCell id="zEI3tzeWcLlLGlrf6bEd-48" value="" style="endArrow=classic;html=1;rounded=0;exitX=0.347;exitY=1.04;exitDx=0;exitDy=0;exitPerimeter=0;entryX=0.623;entryY=-0.033;entryDx=0;entryDy=0;entryPerimeter=0;" edge="1" parent="WIyWlLk6GJQsqaUBKTNV-1" source="zEI3tzeWcLlLGlrf6bEd-0" target="zEI3tzeWcLlLGlrf6bEd-4">
          <mxGeometry width="50" height="50" relative="1" as="geometry">
            <mxPoint x="540" y="550" as="sourcePoint" />
            <mxPoint x="590" y="500" as="targetPoint" />
          </mxGeometry>
        </mxCell>
        <mxCell id="zEI3tzeWcLlLGlrf6bEd-49" value="" style="endArrow=classic;html=1;rounded=0;exitX=0.418;exitY=1.02;exitDx=0;exitDy=0;exitPerimeter=0;entryX=0.75;entryY=0;entryDx=0;entryDy=0;" edge="1" parent="WIyWlLk6GJQsqaUBKTNV-1" source="zEI3tzeWcLlLGlrf6bEd-20" target="zEI3tzeWcLlLGlrf6bEd-11">
          <mxGeometry width="50" height="50" relative="1" as="geometry">
            <mxPoint x="540" y="550" as="sourcePoint" />
            <mxPoint x="590" y="500" as="targetPoint" />
          </mxGeometry>
        </mxCell>
        <mxCell id="zEI3tzeWcLlLGlrf6bEd-50" value="" style="endArrow=classic;html=1;rounded=0;exitX=0.698;exitY=1.033;exitDx=0;exitDy=0;exitPerimeter=0;entryX=0.12;entryY=-0.013;entryDx=0;entryDy=0;entryPerimeter=0;" edge="1" parent="WIyWlLk6GJQsqaUBKTNV-1" source="zEI3tzeWcLlLGlrf6bEd-20" target="zEI3tzeWcLlLGlrf6bEd-0">
          <mxGeometry width="50" height="50" relative="1" as="geometry">
            <mxPoint x="540" y="650" as="sourcePoint" />
            <mxPoint x="590" y="600" as="targetPoint" />
          </mxGeometry>
        </mxCell>
        <mxCell id="zEI3tzeWcLlLGlrf6bEd-51" value="" style="endArrow=classic;html=1;rounded=0;exitX=0.25;exitY=1;exitDx=0;exitDy=0;entryX=0.75;entryY=0;entryDx=0;entryDy=0;" edge="1" parent="WIyWlLk6GJQsqaUBKTNV-1" source="zEI3tzeWcLlLGlrf6bEd-20" target="zEI3tzeWcLlLGlrf6bEd-3">
          <mxGeometry width="50" height="50" relative="1" as="geometry">
            <mxPoint x="540" y="650" as="sourcePoint" />
            <mxPoint x="590" y="600" as="targetPoint" />
          </mxGeometry>
        </mxCell>
        <mxCell id="zEI3tzeWcLlLGlrf6bEd-52" value="" style="endArrow=classic;html=1;rounded=0;exitX=0.5;exitY=1;exitDx=0;exitDy=0;entryX=0.443;entryY=0.027;entryDx=0;entryDy=0;entryPerimeter=0;" edge="1" parent="WIyWlLk6GJQsqaUBKTNV-1" source="zEI3tzeWcLlLGlrf6bEd-20" target="zEI3tzeWcLlLGlrf6bEd-2">
          <mxGeometry width="50" height="50" relative="1" as="geometry">
            <mxPoint x="540" y="650" as="sourcePoint" />
            <mxPoint x="590" y="600" as="targetPoint" />
          </mxGeometry>
        </mxCell>
        <mxCell id="zEI3tzeWcLlLGlrf6bEd-53" value="" style="endArrow=classic;html=1;rounded=0;exitX=0.573;exitY=1.007;exitDx=0;exitDy=0;exitPerimeter=0;entryX=0.5;entryY=0;entryDx=0;entryDy=0;" edge="1" parent="WIyWlLk6GJQsqaUBKTNV-1" source="zEI3tzeWcLlLGlrf6bEd-20" target="zEI3tzeWcLlLGlrf6bEd-8">
          <mxGeometry width="50" height="50" relative="1" as="geometry">
            <mxPoint x="540" y="650" as="sourcePoint" />
            <mxPoint x="590" y="600" as="targetPoint" />
          </mxGeometry>
        </mxCell>
        <mxCell id="zEI3tzeWcLlLGlrf6bEd-55" value="" style="endArrow=classic;html=1;rounded=0;entryX=0.75;entryY=0;entryDx=0;entryDy=0;" edge="1" parent="WIyWlLk6GJQsqaUBKTNV-1" source="zEI3tzeWcLlLGlrf6bEd-10" target="zEI3tzeWcLlLGlrf6bEd-8">
          <mxGeometry width="50" height="50" relative="1" as="geometry">
            <mxPoint x="540" y="550" as="sourcePoint" />
            <mxPoint x="590" y="500" as="targetPoint" />
          </mxGeometry>
        </mxCell>
        <mxCell id="zEI3tzeWcLlLGlrf6bEd-57" value="" style="endArrow=classic;html=1;rounded=0;exitX=0.33;exitY=1.02;exitDx=0;exitDy=0;exitPerimeter=0;entryX=0.417;entryY=-0.06;entryDx=0;entryDy=0;entryPerimeter=0;" edge="1" parent="WIyWlLk6GJQsqaUBKTNV-1" source="zEI3tzeWcLlLGlrf6bEd-10" target="zEI3tzeWcLlLGlrf6bEd-3">
          <mxGeometry width="50" height="50" relative="1" as="geometry">
            <mxPoint x="540" y="550" as="sourcePoint" />
            <mxPoint x="590" y="500" as="targetPoint" />
          </mxGeometry>
        </mxCell>
        <mxCell id="zEI3tzeWcLlLGlrf6bEd-58" value="" style="endArrow=classic;html=1;rounded=0;exitX=0;exitY=0.25;exitDx=0;exitDy=0;entryX=0.25;entryY=0;entryDx=0;entryDy=0;" edge="1" parent="WIyWlLk6GJQsqaUBKTNV-1" source="zEI3tzeWcLlLGlrf6bEd-10" target="zEI3tzeWcLlLGlrf6bEd-23">
          <mxGeometry width="50" height="50" relative="1" as="geometry">
            <mxPoint x="540" y="550" as="sourcePoint" />
            <mxPoint x="590" y="500" as="targetPoint" />
          </mxGeometry>
        </mxCell>
        <mxCell id="zEI3tzeWcLlLGlrf6bEd-59" value="" style="endArrow=classic;html=1;rounded=0;exitX=0.5;exitY=1;exitDx=0;exitDy=0;entryX=0.5;entryY=0;entryDx=0;entryDy=0;" edge="1" parent="WIyWlLk6GJQsqaUBKTNV-1" source="zEI3tzeWcLlLGlrf6bEd-10" target="zEI3tzeWcLlLGlrf6bEd-9">
          <mxGeometry width="50" height="50" relative="1" as="geometry">
            <mxPoint x="540" y="550" as="sourcePoint" />
            <mxPoint x="590" y="500" as="targetPoint" />
          </mxGeometry>
        </mxCell>
        <mxCell id="zEI3tzeWcLlLGlrf6bEd-60" value="" style="endArrow=classic;html=1;rounded=0;exitX=0.657;exitY=0.993;exitDx=0;exitDy=0;exitPerimeter=0;entryX=1;entryY=0.5;entryDx=0;entryDy=0;" edge="1" parent="WIyWlLk6GJQsqaUBKTNV-1" source="zEI3tzeWcLlLGlrf6bEd-10" target="zEI3tzeWcLlLGlrf6bEd-2">
          <mxGeometry width="50" height="50" relative="1" as="geometry">
            <mxPoint x="540" y="550" as="sourcePoint" />
            <mxPoint x="590" y="500" as="targetPoint" />
          </mxGeometry>
        </mxCell>
        <mxCell id="zEI3tzeWcLlLGlrf6bEd-61" value="" style="endArrow=classic;html=1;rounded=0;exitX=0;exitY=0.5;exitDx=0;exitDy=0;entryX=0.75;entryY=0;entryDx=0;entryDy=0;" edge="1" parent="WIyWlLk6GJQsqaUBKTNV-1" source="zEI3tzeWcLlLGlrf6bEd-10" target="zEI3tzeWcLlLGlrf6bEd-20">
          <mxGeometry width="50" height="50" relative="1" as="geometry">
            <mxPoint x="540" y="550" as="sourcePoint" />
            <mxPoint x="590" y="500" as="targetPoint" />
          </mxGeometry>
        </mxCell>
        <mxCell id="zEI3tzeWcLlLGlrf6bEd-62" value="" style="endArrow=classic;html=1;rounded=0;exitX=0.25;exitY=0;exitDx=0;exitDy=0;entryX=1;entryY=0.75;entryDx=0;entryDy=0;" edge="1" parent="WIyWlLk6GJQsqaUBKTNV-1" source="zEI3tzeWcLlLGlrf6bEd-10" target="zEI3tzeWcLlLGlrf6bEd-21">
          <mxGeometry width="50" height="50" relative="1" as="geometry">
            <mxPoint x="540" y="450" as="sourcePoint" />
            <mxPoint x="590" y="400" as="targetPoint" />
          </mxGeometry>
        </mxCell>
        <mxCell id="zEI3tzeWcLlLGlrf6bEd-63" value="" style="endArrow=classic;html=1;rounded=0;exitX=0.823;exitY=1.02;exitDx=0;exitDy=0;exitPerimeter=0;entryX=0.5;entryY=0;entryDx=0;entryDy=0;" edge="1" parent="WIyWlLk6GJQsqaUBKTNV-1" source="zEI3tzeWcLlLGlrf6bEd-10" target="zEI3tzeWcLlLGlrf6bEd-24">
          <mxGeometry width="50" height="50" relative="1" as="geometry">
            <mxPoint x="540" y="450" as="sourcePoint" />
            <mxPoint x="590" y="400" as="targetPoint" />
          </mxGeometry>
        </mxCell>
        <mxCell id="zEI3tzeWcLlLGlrf6bEd-64" value="" style="endArrow=classic;html=1;rounded=0;exitX=0.923;exitY=1.06;exitDx=0;exitDy=0;exitPerimeter=0;entryX=0.857;entryY=-0.047;entryDx=0;entryDy=0;entryPerimeter=0;" edge="1" parent="WIyWlLk6GJQsqaUBKTNV-1" source="zEI3tzeWcLlLGlrf6bEd-10" target="zEI3tzeWcLlLGlrf6bEd-4">
          <mxGeometry width="50" height="50" relative="1" as="geometry">
            <mxPoint x="540" y="550" as="sourcePoint" />
            <mxPoint x="590" y="500" as="targetPoint" />
          </mxGeometry>
        </mxCell>
        <mxCell id="zEI3tzeWcLlLGlrf6bEd-65" value="" style="endArrow=classic;html=1;rounded=0;exitX=0.88;exitY=1.027;exitDx=0;exitDy=0;exitPerimeter=0;entryX=0.25;entryY=0;entryDx=0;entryDy=0;" edge="1" parent="WIyWlLk6GJQsqaUBKTNV-1" source="zEI3tzeWcLlLGlrf6bEd-21" target="zEI3tzeWcLlLGlrf6bEd-4">
          <mxGeometry width="50" height="50" relative="1" as="geometry">
            <mxPoint x="540" y="450" as="sourcePoint" />
            <mxPoint x="590" y="400" as="targetPoint" />
          </mxGeometry>
        </mxCell>
        <mxCell id="zEI3tzeWcLlLGlrf6bEd-66" value="" style="endArrow=classic;html=1;rounded=0;exitX=0.707;exitY=1.013;exitDx=0;exitDy=0;exitPerimeter=0;entryX=0.31;entryY=-0.053;entryDx=0;entryDy=0;entryPerimeter=0;" edge="1" parent="WIyWlLk6GJQsqaUBKTNV-1" source="zEI3tzeWcLlLGlrf6bEd-21" target="zEI3tzeWcLlLGlrf6bEd-11">
          <mxGeometry width="50" height="50" relative="1" as="geometry">
            <mxPoint x="540" y="450" as="sourcePoint" />
            <mxPoint x="590" y="400" as="targetPoint" />
          </mxGeometry>
        </mxCell>
        <mxCell id="zEI3tzeWcLlLGlrf6bEd-67" value="" style="endArrow=classic;html=1;rounded=0;exitX=1;exitY=0.25;exitDx=0;exitDy=0;entryX=0.37;entryY=-0.06;entryDx=0;entryDy=0;entryPerimeter=0;" edge="1" parent="WIyWlLk6GJQsqaUBKTNV-1" source="zEI3tzeWcLlLGlrf6bEd-21" target="zEI3tzeWcLlLGlrf6bEd-3">
          <mxGeometry width="50" height="50" relative="1" as="geometry">
            <mxPoint x="540" y="350" as="sourcePoint" />
            <mxPoint x="590" y="300" as="targetPoint" />
          </mxGeometry>
        </mxCell>
        <mxCell id="zEI3tzeWcLlLGlrf6bEd-68" value="" style="endArrow=classic;html=1;rounded=0;exitX=0.131;exitY=1.027;exitDx=0;exitDy=0;exitPerimeter=0;entryX=0.357;entryY=-0.033;entryDx=0;entryDy=0;entryPerimeter=0;" edge="1" parent="WIyWlLk6GJQsqaUBKTNV-1" source="zEI3tzeWcLlLGlrf6bEd-27" target="zEI3tzeWcLlLGlrf6bEd-9">
          <mxGeometry width="50" height="50" relative="1" as="geometry">
            <mxPoint x="540" y="450" as="sourcePoint" />
            <mxPoint x="590" y="400" as="targetPoint" />
          </mxGeometry>
        </mxCell>
        <mxCell id="zEI3tzeWcLlLGlrf6bEd-69" value="" style="endArrow=classic;html=1;rounded=0;exitX=0.25;exitY=1;exitDx=0;exitDy=0;entryX=1;entryY=0.5;entryDx=0;entryDy=0;" edge="1" parent="WIyWlLk6GJQsqaUBKTNV-1" source="zEI3tzeWcLlLGlrf6bEd-27" target="zEI3tzeWcLlLGlrf6bEd-26">
          <mxGeometry width="50" height="50" relative="1" as="geometry">
            <mxPoint x="540" y="450" as="sourcePoint" />
            <mxPoint x="590" y="400" as="targetPoint" />
          </mxGeometry>
        </mxCell>
        <mxCell id="zEI3tzeWcLlLGlrf6bEd-70" value="" style="endArrow=classic;html=1;rounded=0;exitX=0.384;exitY=1.053;exitDx=0;exitDy=0;exitPerimeter=0;entryX=1.018;entryY=0.64;entryDx=0;entryDy=0;entryPerimeter=0;" edge="1" parent="WIyWlLk6GJQsqaUBKTNV-1" source="zEI3tzeWcLlLGlrf6bEd-27" target="zEI3tzeWcLlLGlrf6bEd-22">
          <mxGeometry width="50" height="50" relative="1" as="geometry">
            <mxPoint x="540" y="450" as="sourcePoint" />
            <mxPoint x="590" y="400" as="targetPoint" />
          </mxGeometry>
        </mxCell>
        <mxCell id="zEI3tzeWcLlLGlrf6bEd-71" value="" style="endArrow=classic;html=1;rounded=0;exitX=1;exitY=0.5;exitDx=0;exitDy=0;entryX=0;entryY=0;entryDx=0;entryDy=0;" edge="1" parent="WIyWlLk6GJQsqaUBKTNV-1" source="zEI3tzeWcLlLGlrf6bEd-27" target="zEI3tzeWcLlLGlrf6bEd-10">
          <mxGeometry width="50" height="50" relative="1" as="geometry">
            <mxPoint x="540" y="450" as="sourcePoint" />
            <mxPoint x="590" y="400" as="targetPoint" />
          </mxGeometry>
        </mxCell>
        <mxCell id="zEI3tzeWcLlLGlrf6bEd-72" value="" style="endArrow=classic;html=1;rounded=0;exitX=0.5;exitY=1;exitDx=0;exitDy=0;entryX=0.13;entryY=0.033;entryDx=0;entryDy=0;entryPerimeter=0;" edge="1" parent="WIyWlLk6GJQsqaUBKTNV-1" source="zEI3tzeWcLlLGlrf6bEd-27" target="zEI3tzeWcLlLGlrf6bEd-4">
          <mxGeometry width="50" height="50" relative="1" as="geometry">
            <mxPoint x="540" y="450" as="sourcePoint" />
            <mxPoint x="590" y="400" as="targetPoint" />
          </mxGeometry>
        </mxCell>
        <mxCell id="zEI3tzeWcLlLGlrf6bEd-73" value="" style="endArrow=classic;html=1;rounded=0;exitX=0.687;exitY=0.987;exitDx=0;exitDy=0;exitPerimeter=0;entryX=0.5;entryY=0;entryDx=0;entryDy=0;" edge="1" parent="WIyWlLk6GJQsqaUBKTNV-1" source="zEI3tzeWcLlLGlrf6bEd-27" target="zEI3tzeWcLlLGlrf6bEd-1">
          <mxGeometry width="50" height="50" relative="1" as="geometry">
            <mxPoint x="540" y="450" as="sourcePoint" />
            <mxPoint x="590" y="400" as="targetPoint" />
          </mxGeometry>
        </mxCell>
        <mxCell id="zEI3tzeWcLlLGlrf6bEd-74" value="" style="endArrow=classic;html=1;rounded=0;exitX=0.869;exitY=1.053;exitDx=0;exitDy=0;exitPerimeter=0;entryX=1;entryY=0.25;entryDx=0;entryDy=0;" edge="1" parent="WIyWlLk6GJQsqaUBKTNV-1" source="zEI3tzeWcLlLGlrf6bEd-27" target="zEI3tzeWcLlLGlrf6bEd-25">
          <mxGeometry width="50" height="50" relative="1" as="geometry">
            <mxPoint x="540" y="450" as="sourcePoint" />
            <mxPoint x="590" y="400" as="targetPoint" />
          </mxGeometry>
        </mxCell>
        <mxCell id="zEI3tzeWcLlLGlrf6bEd-75" value="" style="endArrow=classic;html=1;rounded=0;exitX=1;exitY=0.25;exitDx=0;exitDy=0;entryX=0.597;entryY=-0.007;entryDx=0;entryDy=0;entryPerimeter=0;" edge="1" parent="WIyWlLk6GJQsqaUBKTNV-1" source="zEI3tzeWcLlLGlrf6bEd-22" target="zEI3tzeWcLlLGlrf6bEd-4">
          <mxGeometry width="50" height="50" relative="1" as="geometry">
            <mxPoint x="540" y="450" as="sourcePoint" />
            <mxPoint x="90" y="390" as="targetPoint" />
          </mxGeometry>
        </mxCell>
        <mxCell id="zEI3tzeWcLlLGlrf6bEd-76" value="" style="endArrow=classic;html=1;rounded=0;exitX=0.711;exitY=1.013;exitDx=0;exitDy=0;exitPerimeter=0;entryX=0.157;entryY=-0.04;entryDx=0;entryDy=0;entryPerimeter=0;" edge="1" parent="WIyWlLk6GJQsqaUBKTNV-1" source="zEI3tzeWcLlLGlrf6bEd-22" target="zEI3tzeWcLlLGlrf6bEd-11">
          <mxGeometry width="50" height="50" relative="1" as="geometry">
            <mxPoint x="540" y="450" as="sourcePoint" />
            <mxPoint x="590" y="400" as="targetPoint" />
          </mxGeometry>
        </mxCell>
        <mxCell id="zEI3tzeWcLlLGlrf6bEd-77" value="" style="endArrow=classic;html=1;rounded=0;exitX=0.56;exitY=1.027;exitDx=0;exitDy=0;exitPerimeter=0;entryX=0;entryY=0;entryDx=0;entryDy=0;" edge="1" parent="WIyWlLk6GJQsqaUBKTNV-1" source="zEI3tzeWcLlLGlrf6bEd-22" target="zEI3tzeWcLlLGlrf6bEd-3">
          <mxGeometry width="50" height="50" relative="1" as="geometry">
            <mxPoint x="540" y="450" as="sourcePoint" />
            <mxPoint x="590" y="400" as="targetPoint" />
          </mxGeometry>
        </mxCell>
        <mxCell id="zEI3tzeWcLlLGlrf6bEd-78" value="" style="endArrow=classic;html=1;rounded=0;exitX=0.311;exitY=1.007;exitDx=0;exitDy=0;exitPerimeter=0;entryX=0;entryY=0.75;entryDx=0;entryDy=0;" edge="1" parent="WIyWlLk6GJQsqaUBKTNV-1" source="zEI3tzeWcLlLGlrf6bEd-26" target="zEI3tzeWcLlLGlrf6bEd-4">
          <mxGeometry width="50" height="50" relative="1" as="geometry">
            <mxPoint x="540" y="450" as="sourcePoint" />
            <mxPoint x="590" y="400" as="targetPoint" />
          </mxGeometry>
        </mxCell>
        <mxCell id="zEI3tzeWcLlLGlrf6bEd-79" value="" style="endArrow=classic;html=1;rounded=0;exitX=0.25;exitY=1;exitDx=0;exitDy=0;entryX=0;entryY=0.5;entryDx=0;entryDy=0;" edge="1" parent="WIyWlLk6GJQsqaUBKTNV-1" source="zEI3tzeWcLlLGlrf6bEd-26" target="zEI3tzeWcLlLGlrf6bEd-11">
          <mxGeometry width="50" height="50" relative="1" as="geometry">
            <mxPoint x="540" y="450" as="sourcePoint" />
            <mxPoint x="590" y="400" as="targetPoint" />
          </mxGeometry>
        </mxCell>
        <mxCell id="zEI3tzeWcLlLGlrf6bEd-80" value="" style="endArrow=classic;html=1;rounded=0;exitX=0.151;exitY=1.047;exitDx=0;exitDy=0;exitPerimeter=0;" edge="1" parent="WIyWlLk6GJQsqaUBKTNV-1" source="zEI3tzeWcLlLGlrf6bEd-26" target="zEI3tzeWcLlLGlrf6bEd-3">
          <mxGeometry width="50" height="50" relative="1" as="geometry">
            <mxPoint x="540" y="450" as="sourcePoint" />
            <mxPoint x="590" y="400" as="targetPoint" />
          </mxGeometry>
        </mxCell>
      </root>
    </mxGraphModel>
  </diagram>
</mxfile>
